<?xml version="1.0" encoding="utf-8"?>
<!-- Generator: Adobe Illustrator 21.1.0, SVG Export Plug-In . SVG Version: 6.00 Build 0)  -->
<svg version="1.1" id="Livello_1" xmlns="http://www.w3.org/2000/svg" xmlns:xlink="http://www.w3.org/1999/xlink" x="0px" y="0px"
	 viewBox="0 0 195.8 168.4" style="enable-background:new 0 0 195.8 168.4;" xml:space="preserve">
<g>
	<g>
		<g>
			<path d="M72.5,46.3c-6-16.2-26.3-24.2-39.3-10.2c-10.2,11-10.1,30.5,4.2,38c9.1,4.8,28.2,4.4,25.6,19.8c-0.2,1-0.4,1.8-0.9,2.6
				c-0.1,0.2-0.3,0.2-1,0.5c-1.1,0.5-4.2,0.8-6.3,0.6c-8.2-0.6-15.7-4.7-22.4-9.2c-0.7,5.1-1.3,10.3-2,15.4
				c34.9-8.4,66.9-26.2,92.5-51.3c-4-4-8-8-11.9-11.9c-7.2,9.2-15.9,16.5-26.2,21.8C79,65.4,79.3,74,84.7,77
				c16.7,9.4,33.4,18.8,50,28.3c9.5,5.4,18-9.2,8.5-14.6c-16.7-9.4-33.4-18.8-50-28.3c0,4.9,0,9.7,0,14.6
				c11.5-5.9,21.7-14.2,29.6-24.4c6.5-8.3-3.9-19.8-11.9-11.9C87.3,63.8,58,79.9,25.9,87.6c-7.5,1.8-7.7,11.6-2,15.4
				c11.7,7.9,28.6,15.2,42.9,9.8c14.8-5.6,16.1-24.2,8.9-36.5c-3.8-6.6-10-10.6-17-13.1c-4.2-1.5-11.3-1.8-14.4-4.9
				c-6.6-6.5,7.5-20,12.1-7.6c1.6,4.3,5.7,7.2,10.4,5.9C70.7,55.6,74.1,50.6,72.5,46.3L72.5,46.3z"/>
		</g>
	</g>
	<g>
		<g>
			<path d="M98.3,50.5c-0.4-13.3-0.7-26.7-1.1-40C97-0.4,80.1-0.4,80.4,10.5c0.4,13.3,0.7,26.7,1.1,40
				C81.7,61.3,98.6,61.3,98.3,50.5L98.3,50.5z"/>
		</g>
	</g>
	<g>
		<g>
			<path d="M81.5,50.5c-0.1,21.7-1.3,43.4-3.6,64.9c-0.5,4.5,4.2,8.4,8.4,8.4c5,0,8-3.9,8.4-8.4c2.3-21.6,3.5-43.2,3.6-64.9
				C98.4,39.6,81.5,39.6,81.5,50.5L81.5,50.5z"/>
		</g>
	</g>
	<g>
		<g>
			<path d="M144.9,72.1c8.5,0.9,18.9-1.6,24.9-8.2c5.9-6.6,5.7-16,0.7-23.1c-8-11.2-26.6-12.5-37-3.7c-7,6-9.4,16.5-6,25
				c3.5,8.9,11.1,11.2,19.8,11.3c7.1,0.1,14.1,3.7,15.7,11.4c0.7,3.4,0.6,8.8-3.4,10c-4.4,1.4-12.9-0.1-15.1-5.4
				c-1.1-2.6-0.5-5.8,0.5-8.4c0.8-2,3.5-5.2,4.5-6c3.7-2.6,5.5-7.4,3-11.6c-2.1-3.7-7.8-5.7-11.6-3c-12.1,8.6-18.8,26.2-9.8,39.6
				c8.2,12.1,30.2,16.7,41.5,6.4c11.1-10.2,8.7-28.5-0.3-39c-5.9-6.9-14.1-10.4-23.1-10.8c-1.7-0.1-3.4-0.1-5.1-0.1
				c-0.8,0-1.4-0.7-0.6,0.3c-1.6-1.8-0.6-5.6,1.1-7c2.8-2.3,8.3-1.9,11-0.4c0.5,0.3,1.8,1.9,1,0.9c-0.7-0.8,0.9,1.4,0.9,1.5
				c0,0.6-0.1,0.4-0.4,1c-1.8,3-9.4,2.6-12.1,2.4c-4.5-0.5-8.4,4.2-8.4,8.4C136.5,68.6,140.3,71.6,144.9,72.1L144.9,72.1z"/>
		</g>
	</g>
	<g>
		<g>
			<path d="M28.3,123.6c-7.8-1.5-14.5,1.2-12.7,10.3c1,5.1,3.3,11.5,0.4,16.3c-1.8,3-4.8,3.6-7.7,4.6c-1.8-0.2-2.3,0-1.3,0.7
				c0.5,0.7,1.2,0.7,2,0.1c1.3-0.1,2.7-0.6,3.9-0.9c20.5-5,40.7-13.3,55.7-28.6c-1.5-1.1-2.9-2.3-4.4-3.4
				c-3.8,5.4-10.1,16.2-7.4,23.1c1.8,4.7,8,5.5,12.3,4.9c9.6-1.4,19-6.7,27.3-11.5c2.8-1.6,0.9-6-2.2-5.1c-3.2,0.9-8.4,2.6-8.6,6.7
				c-0.2,3.7,4,5.6,7.1,5.8c3.7,0.2,7.8-1.9,8.3-5.9c0.5-3.7-2.4-6.8-6.1-6.7c-2.6,0-4.1,4.1-1.4,5.2c7.7,3.3,15.6,5.9,23.8,7.7
				c1.9,0.4,3.4-0.8,3.6-2.7c0.5-4.9,1.8-0.2,2.5,0.9c0.8,1.1,1.8,2.1,3,2.9c2,1.3,4.6,1.8,6.9,1c4.3-1.5,6.5-7,3.8-10.8
				c-1.1,1.4-2.1,2.8-3.2,4.1c11.2,3,22.7,3.5,33.8,0c3.1-1,8.4-2.7,8.1-6.9c-0.4-4.3-6.1-6.3-9.8-5.9c-10.8,1.4-9.4,18.9-2.3,23.8
				c9.6,6.7,23.4-1.4,30.9-7.4c2.8-2.3-1.2-6.2-4-4c-5.4,4.3-12.7,8.8-20,8c-3.9-0.4-6-3-6.7-6.8c-0.2-1.3-0.3-3.6,0.2-5
				c0.5-1.3,4-5.1,5.4-2.6c0.3,0.6-11.5,3.3-13,3.5c-7.2,0.8-14.3-0.2-21.2-2.1c-2.2-0.6-4.7,2.1-3.2,4.1c0.8,1.8,0.2,2.4-1.7,1.8
				c-1.5,0.4-2.6-0.1-3.1-1.7c-0.8-1.4-0.7-2.4-1.8-3.7c-1-1.2-2.4-1.9-4-1.8c-4.8,0.1-6.1,4.7-6.5,8.7c1.2-0.9,2.4-1.8,3.6-2.7
				c-7.7-1.7-15.2-4-22.4-7.1c-0.5,1.7-0.9,3.5-1.4,5.2c-0.9,0.9-1.9,1.3-2.9,1.3c1.2-0.6,2.4-1.1,3.7-1.4c-0.7-1.7-1.4-3.4-2.2-5.1
				c-5.8,3.3-11.8,6.4-18.1,8.7c-2.9,1.1-6.9,2.8-10.1,2.2c-7.6-1.6,1.4-16.3,3.7-19.7c1.9-2.7-2.2-5.6-4.4-3.4
				c-9.1,9.2-20.3,15.9-32.3,20.6c-6,2.4-12.3,4.3-18.6,5.9c-3.7,1-10.8,1.1-12.8,5.2c-1.7,3.4,1.1,6.3,4.4,6.8
				c4.3,0.6,9.6-1.5,12.7-4.3c3.7-3.3,5-8,4.8-12.9c-0.1-2.8-0.7-5.5-1.2-8.2c-0.4-1.9-0.9-2.8,0.1-4.7c0-1.7,0.8-2.3,2.3-1.9
				c1,0,1.9,0.1,2.8,0.4C30.3,129.7,31.8,124.3,28.3,123.6L28.3,123.6z"/>
		</g>
	</g>
</g>
</svg>
